<svg version="1.1" xmlns="http://www.w3.org/2000/svg" xmlns:xlink="http://www.w3.org/1999/xlink" width="572" height="484"><defs><linearGradient id="UTfTmfLmEZgL" x1="0px" x2="32px" y1="0px" y2="0px" gradientUnits="userSpaceOnUse"><stop offset="0" stop-color="#7b847b"/><stop offset="1" stop-color="#7b847b"/></linearGradient><linearGradient id="fpxrssIhBzkP" x1="0px" x2="16px" y1="0px" y2="0px" gradientUnits="userSpaceOnUse"><stop offset="0" stop-color="#01fd01"/><stop offset="1" stop-color="#02fc02"/></linearGradient><linearGradient id="qqRaMqsrWwgk" x1="0px" x2="31.304951684997057px" y1="0px" y2="0px" gradientUnits="userSpaceOnUse"><stop offset="0" stop-color="#807f7f"/><stop offset="1" stop-color="#807f7f"/></linearGradient></defs><g><rect fill="#000000" stroke="none" x="0" y="0" width="572" height="484"/><g transform="scale(1,1) translate(-42,2)"><path fill="none" stroke="#808080" paint-order="fill stroke markers" d=" M 331.6 256 A 19.6 19.6 0 1 1 331.59999020000083 255.98040000326665" stroke-linecap="round" stroke-miterlimit="10" stroke-width="3" stroke-dasharray=""/><path fill="none" stroke="#02fc02" paint-order="fill stroke markers" d=" M 320 240 L 307 250" stroke-linecap="round" stroke-miterlimit="10" stroke-width="3" stroke-dasharray=""/><path fill="none" stroke="#807f7f" paint-order="fill stroke markers" d=" M 320 272 L 307 262" stroke-linecap="round" stroke-miterlimit="10" stroke-width="3" stroke-dasharray=""/><path fill="#c0c0c0" stroke="none" paint-order="stroke fill markers" d=" M 320 272 L 316 264 L 311 270 Z"/><path fill="none" stroke="#7b847b" paint-order="fill stroke markers" d=" M 272 256 L 304 256" stroke-linecap="round" stroke-miterlimit="10" stroke-width="3" stroke-dasharray=""/><path fill="#7b847b" stroke="none" paint-order="stroke fill markers" d=" M 304 240 L 307 240 L 307 272 L 304 272 Z"/><path fill="none" stroke="#7b847b" paint-order="fill stroke markers" d=" M 192 256 L 216 256" stroke-linecap="round" stroke-miterlimit="10" stroke-width="3" stroke-dasharray=""/><path fill="none" stroke="#7b847b" paint-order="fill stroke markers" d=" M 248 256 L 272 256" stroke-linecap="round" stroke-miterlimit="10" stroke-width="3" stroke-dasharray=""/><g transform="matrix(1,0,0,1,216,256)"><path fill="none" stroke="url(#UTfTmfLmEZgL)" paint-order="fill stroke markers" d=" M 0 0 L 2 6 L 6 -6 L 10 6 L 14 -6 L 18 6 L 22 -6 L 26 6 L 30 -6 L 32 0" stroke-linecap="round" stroke-miterlimit="10" stroke-width="3" stroke-dasharray=""/></g><text fill="#ffffff" stroke="none" font-family="sans-serif" font-size="12px" font-style="normal" font-weight="normal" text-decoration="normal" x="226" y="246" text-anchor="start" dominant-baseline="alphabetic">1k</text><path fill="none" stroke="#2cd22c" paint-order="fill stroke markers" d=" M 144 256 L 129 256" stroke-linecap="round" stroke-miterlimit="10" stroke-width="3" stroke-dasharray=""/><g><text fill="#ffffff" stroke="none" font-family="sans-serif" font-size="12px" font-style="normal" font-weight="normal" text-decoration="normal" x="94" y="256" text-anchor="start" dominant-baseline="central">+3.3V</text></g><path fill="none" stroke="#807f7f" paint-order="fill stroke markers" d=" M 320 352 L 320 432" stroke-linecap="round" stroke-miterlimit="10" stroke-width="3" stroke-dasharray=""/><path fill="none" stroke="#807f7f" paint-order="fill stroke markers" d=" M 330 432 L 310 432" stroke-linecap="round" stroke-miterlimit="10" stroke-width="3" stroke-dasharray=""/><path fill="none" stroke="#807f7f" paint-order="fill stroke markers" d=" M 326 437 L 314 437" stroke-linecap="round" stroke-miterlimit="10" stroke-width="3" stroke-dasharray=""/><path fill="none" stroke="#807f7f" paint-order="fill stroke markers" d=" M 322 442 L 318 442" stroke-linecap="round" stroke-miterlimit="10" stroke-width="3" stroke-dasharray=""/><path fill="none" stroke="#02fc02" paint-order="fill stroke markers" d=" M 320 208 L 320 176" stroke-linecap="round" stroke-miterlimit="10" stroke-width="3" stroke-dasharray=""/><path fill="none" stroke="#01fd01" paint-order="fill stroke markers" d=" M 320 160 L 320 128" stroke-linecap="round" stroke-miterlimit="10" stroke-width="3" stroke-dasharray=""/><path fill="#02fc02" stroke="none" paint-order="stroke fill markers" d=" M 312 176 L 328 176 L 320 160 Z"/><path fill="none" stroke="#01fd01" paint-order="fill stroke markers" d=" M 312 160 L 328 160" stroke-linecap="round" stroke-miterlimit="10" stroke-width="3" stroke-dasharray=""/><path fill="none" stroke="#01fd01" paint-order="fill stroke markers" d=" M 320 128 L 320 65" stroke-linecap="round" stroke-miterlimit="10" stroke-width="3" stroke-dasharray=""/><g><text fill="#ffffff" stroke="none" font-family="sans-serif" font-size="12px" font-style="normal" font-weight="normal" text-decoration="normal" x="310" y="53" text-anchor="start" dominant-baseline="central">+5V</text></g><path fill="none" stroke="#2cd22c" paint-order="fill stroke markers" d=" M 144 256 L 152 256" stroke-linecap="round" stroke-miterlimit="10" stroke-width="3" stroke-dasharray=""/><path fill="none" stroke="#7b847b" paint-order="fill stroke markers" d=" M 184 256 L 192 256" stroke-linecap="round" stroke-miterlimit="10" stroke-width="3" stroke-dasharray=""/><path fill="none" stroke="#ffffff" paint-order="fill stroke markers" d=" M 152 256 L 184 240" stroke-linecap="round" stroke-miterlimit="10" stroke-width="3" stroke-dasharray=""/><path fill="none" stroke="#02fc02" paint-order="fill stroke markers" d=" M 320 240 L 320 208" stroke-linecap="round" stroke-miterlimit="10" stroke-width="3" stroke-dasharray=""/><text fill="#ffffff" stroke="none" font-family="sans-serif" font-size="12px" font-style="normal" font-weight="normal" text-decoration="normal" x="326" y="230" text-anchor="start" dominant-baseline="alphabetic"></text><path fill="none" stroke="#01fd01" paint-order="fill stroke markers" d=" M 320 128 L 352 128" stroke-linecap="round" stroke-miterlimit="10" stroke-width="3" stroke-dasharray=""/><text fill="#ffffff" stroke="none" font-family="sans-serif" font-size="12px" font-style="normal" font-weight="normal" text-decoration="normal" x="336" y="122" text-anchor="start" dominant-baseline="alphabetic"></text><path fill="none" stroke="#01fd01" paint-order="fill stroke markers" d=" M 352 128 L 400 144" stroke-linecap="round" stroke-miterlimit="10" stroke-width="3" stroke-dasharray=""/><text fill="#ffffff" stroke="none" font-family="sans-serif" font-size="12px" font-style="normal" font-weight="normal" text-decoration="normal" x="379" y="139" text-anchor="start" dominant-baseline="alphabetic"></text><path fill="none" stroke="#807f7f" paint-order="fill stroke markers" d=" M 320 272 L 320 352" stroke-linecap="round" stroke-miterlimit="10" stroke-width="3" stroke-dasharray=""/><text fill="#ffffff" stroke="none" font-family="sans-serif" font-size="12px" font-style="normal" font-weight="normal" text-decoration="normal" x="326" y="318" text-anchor="start" dominant-baseline="alphabetic"></text><path fill="none" stroke="#02fc02" paint-order="fill stroke markers" d=" M 400 160 L 320 208" stroke-linecap="round" stroke-miterlimit="10" stroke-width="3" stroke-dasharray=""/><text fill="#ffffff" stroke="none" font-family="sans-serif" font-size="12px" font-style="normal" font-weight="normal" text-decoration="normal" x="364" y="193" text-anchor="start" dominant-baseline="alphabetic"></text><path fill="none" stroke="#01fd01" paint-order="fill stroke markers" d=" M 432 144 L 400 144" stroke-linecap="round" stroke-miterlimit="10" stroke-width="3" stroke-dasharray=""/><path fill="none" stroke="#02fc02" paint-order="fill stroke markers" d=" M 432 160 L 400 160" stroke-linecap="round" stroke-miterlimit="10" stroke-width="3" stroke-dasharray=""/><g transform="matrix(0,1,-1,0,432,144) scale(1,1)"><path fill="none" stroke="url(#fpxrssIhBzkP)" paint-order="fill stroke markers" d=" M 0 0 L 0 4.898587196589413e-16 A 4 4 0 0 1 8 0 L 8 0" stroke-linecap="round" stroke-miterlimit="10" stroke-width="3" stroke-dasharray=""/><path fill="none" stroke="url(#fpxrssIhBzkP)" paint-order="fill stroke markers" d=" M 8 0 L 8 4.898587196589413e-16 A 4 4 0 0 1 16 0 L 16 0" stroke-linecap="round" stroke-miterlimit="10" stroke-width="3" stroke-dasharray=""/></g><path fill="none" stroke="#c0c0c0" paint-order="fill stroke markers" d=" M 407 168 L 457 168" stroke-linecap="round" stroke-miterlimit="10" stroke-width="3" stroke-dasharray=""/><path fill="none" stroke="#c0c0c0" paint-order="fill stroke markers" d=" M 457 168 L 457 88" stroke-linecap="round" stroke-miterlimit="10" stroke-width="3" stroke-dasharray=""/><path fill="none" stroke="#c0c0c0" paint-order="fill stroke markers" d=" M 457 88 L 407 88" stroke-linecap="round" stroke-miterlimit="10" stroke-width="3" stroke-dasharray=""/><path fill="none" stroke="#c0c0c0" paint-order="fill stroke markers" d=" M 407 88 L 407 168" stroke-linecap="round" stroke-miterlimit="10" stroke-width="3" stroke-dasharray=""/><path fill="none" stroke="#404040" paint-order="fill stroke markers" d=" M 432 139 L 432 109" stroke-linecap="round" stroke-miterlimit="10" stroke-dasharray="4,4"/><path fill="none" stroke="#01fd01" paint-order="fill stroke markers" d=" M 400 112 L 416 112" stroke-linecap="round" stroke-miterlimit="10" stroke-width="3"/><path fill="none" stroke="#01fd01" paint-order="fill stroke markers" d=" M 464 96 L 448 96" stroke-linecap="round" stroke-miterlimit="10" stroke-width="3"/><path fill="none" stroke="#649b64" paint-order="fill stroke markers" d=" M 464 128 L 448 128" stroke-linecap="round" stroke-miterlimit="10" stroke-width="3"/><path fill="none" stroke="#c0c0c0" paint-order="fill stroke markers" d=" M 416 112 L 448 96" stroke-linecap="round" stroke-miterlimit="10" stroke-width="3"/><path fill="none" stroke="#01fd01" paint-order="fill stroke markers" d=" M 400 112 L 400 65" stroke-linecap="round" stroke-miterlimit="10" stroke-width="3"/><g><text fill="#ffffff" stroke="none" font-family="sans-serif" font-size="12px" font-style="normal" font-weight="normal" text-decoration="normal" x="386" y="53" text-anchor="start" dominant-baseline="central">+12V</text></g><path fill="none" stroke="#807f7f" paint-order="fill stroke markers" d=" M 464 320 L 320 352" stroke-linecap="round" stroke-miterlimit="10" stroke-width="3"/><text fill="#ffffff" stroke="none" font-family="sans-serif" font-size="12px" font-style="normal" font-weight="normal" text-decoration="normal" x="392" y="331" text-anchor="start" dominant-baseline="alphabetic"></text><path fill="none" stroke="#649b64" paint-order="fill stroke markers" d=" M 544 128 L 544 164" stroke-linecap="round" stroke-miterlimit="10" stroke-width="3"/><path fill="none" stroke="#807f7f" paint-order="fill stroke markers" d=" M 544 188 L 544 224" stroke-linecap="round" stroke-miterlimit="10" stroke-width="3"/><path fill="none" stroke="#808080" paint-order="fill stroke markers" d=" M 555.76 176 A 11.76 11.76 0 1 1 555.7599941200004 175.98824000195998" stroke-linecap="round" stroke-miterlimit="10" stroke-width="3"/><path fill="#000000" stroke="none" paint-order="stroke fill markers" d=" M 552 176 A 8 8 0 1 1 551.9999999998873 175.9999575425633 Z"/><path fill="none" stroke="#649b64" paint-order="fill stroke markers" d=" M 544 128 L 496 128" stroke-linecap="round" stroke-miterlimit="10" stroke-width="3"/><text fill="#ffffff" stroke="none" font-family="sans-serif" font-size="12px" font-style="normal" font-weight="normal" text-decoration="normal" x="520" y="122" text-anchor="start" dominant-baseline="alphabetic"></text><path fill="none" stroke="#807f7f" paint-order="fill stroke markers" d=" M 496 256 L 544 224" stroke-linecap="round" stroke-miterlimit="10" stroke-width="3"/><text fill="#ffffff" stroke="none" font-family="sans-serif" font-size="12px" font-style="normal" font-weight="normal" text-decoration="normal" x="516" y="243" text-anchor="start" dominant-baseline="alphabetic"></text><path fill="none" stroke="#649b64" paint-order="fill stroke markers" d=" M 496 128 L 464 128" stroke-linecap="round" stroke-miterlimit="10" stroke-width="3"/><text fill="#ffffff" stroke="none" font-family="sans-serif" font-size="12px" font-style="normal" font-weight="normal" text-decoration="normal" x="480" y="122" text-anchor="start" dominant-baseline="alphabetic"></text><path fill="none" stroke="#807f7f" paint-order="fill stroke markers" d=" M 464 320 L 473 302" stroke-linecap="round" stroke-miterlimit="10" stroke-width="3"/><path fill="none" stroke="#807f7f" paint-order="fill stroke markers" d=" M 487 274 L 496 256" stroke-linecap="round" stroke-miterlimit="10" stroke-width="3"/><g transform="matrix(0.4472135954999579,-0.8944271909999159,0.8944271909999159,0.4472135954999579,473,302)"><path fill="none" stroke="url(#qqRaMqsrWwgk)" paint-order="fill stroke markers" d=" M 0 0 L 1.956559480312316 6 L 5.869678440936948 -6 L 9.78279740156158 6 L 13.695916362186212 -6 L 17.609035322810843 6 L 21.522154283435476 -6 L 25.43527324406011 6 L 29.348392204684743 -6 L 31.304951684997057 0" stroke-linecap="round" stroke-miterlimit="10" stroke-width="3"/></g><text fill="#ffffff" stroke="none" font-family="sans-serif" font-size="12px" font-style="normal" font-weight="normal" text-decoration="normal" x="459" y="291" text-anchor="start" dominant-baseline="alphabetic">1k</text><path fill="#ffffff" stroke="none" paint-order="stroke fill markers" d=" M 323 352 A 3 3 0 1 1 322.99999999995777 351.99998407846124 Z"/><path fill="#ffffff" stroke="none" paint-order="stroke fill markers" d=" M 323 208 A 3 3 0 1 1 322.99999999995777 207.99998407846124 Z"/><path fill="#ffffff" stroke="none" paint-order="stroke fill markers" d=" M 323 128 A 3 3 0 1 1 322.99999999995777 127.99998407846124 Z"/><path fill="#ffffff" stroke="none" paint-order="stroke fill markers" d=" M 467 96 A 3 3 0 1 1 466.99999999995777 95.99998407846124 Z"/></g></g></svg>